<svg id="visual" viewBox="0 0 900 600" width="900" height="600" xmlns="http://www.w3.org/2000/svg" xmlns:xlink="http://www.w3.org/1999/xlink" version="1.1"><rect x="0" y="0" width="900" height="600" fill="#001220"></rect><path d="M0 277L47 277L47 256L95 256L95 277L142 277L142 283L189 283L189 345L237 345L237 366L284 366L284 258L332 258L332 341L379 341L379 324L426 324L426 296L474 296L474 355L521 355L521 253L568 253L568 315L616 315L616 281L663 281L663 280L711 280L711 304L758 304L758 373L805 373L805 252L853 252L853 265L900 265L900 296L900 601L900 601L853 601L853 601L805 601L805 601L758 601L758 601L711 601L711 601L663 601L663 601L616 601L616 601L568 601L568 601L521 601L521 601L474 601L474 601L426 601L426 601L379 601L379 601L332 601L332 601L284 601L284 601L237 601L237 601L189 601L189 601L142 601L142 601L95 601L95 601L47 601L47 601L0 601Z" fill="#b3d4ee"></path><path d="M0 390L47 390L47 384L95 384L95 434L142 434L142 430L189 430L189 462L237 462L237 384L284 384L284 417L332 417L332 369L379 369L379 365L426 365L426 347L474 347L474 396L521 396L521 394L568 394L568 350L616 350L616 451L663 451L663 420L711 420L711 424L758 424L758 396L805 396L805 391L853 391L853 386L900 386L900 351L900 601L900 601L853 601L853 601L805 601L805 601L758 601L758 601L711 601L711 601L663 601L663 601L616 601L616 601L568 601L568 601L521 601L521 601L474 601L474 601L426 601L426 601L379 601L379 601L332 601L332 601L284 601L284 601L237 601L237 601L189 601L189 601L142 601L142 601L95 601L95 601L47 601L47 601L0 601Z" fill="#001220"></path><path d="M0 544L47 544L47 536L95 536L95 459L142 459L142 463L189 463L189 519L237 519L237 488L284 488L284 469L332 469L332 490L379 490L379 491L426 491L426 500L474 500L474 515L521 515L521 496L568 496L568 487L616 487L616 468L663 468L663 459L711 459L711 540L758 540L758 520L805 520L805 465L853 465L853 523L900 523L900 452L900 601L900 601L853 601L853 601L805 601L805 601L758 601L758 601L711 601L711 601L663 601L663 601L616 601L616 601L568 601L568 601L521 601L521 601L474 601L474 601L426 601L426 601L379 601L379 601L332 601L332 601L284 601L284 601L237 601L237 601L189 601L189 601L142 601L142 601L95 601L95 601L47 601L47 601L0 601Z" fill="#b3d4ee"></path></svg>