<svg id="visual" viewBox="0 0 900 600" width="900" height="600" xmlns="http://www.w3.org/2000/svg" xmlns:xlink="http://www.w3.org/1999/xlink" version="1.1"><rect x="0" y="0" width="900" height="600" fill="#001220"></rect><defs><linearGradient id="grad1_0" x1="33.3%" y1="100%" x2="100%" y2="0%"><stop offset="20%" stop-color="#001220" stop-opacity="1"></stop><stop offset="80%" stop-color="#001220" stop-opacity="1"></stop></linearGradient></defs><defs><linearGradient id="grad2_0" x1="0%" y1="100%" x2="66.7%" y2="0%"><stop offset="20%" stop-color="#001220" stop-opacity="1"></stop><stop offset="80%" stop-color="#001220" stop-opacity="1"></stop></linearGradient></defs><g transform="translate(900, 600)"><path d="M-243.4 0C-222.9 -24.4 -202.5 -48.8 -194 -80.4C-185.5 -111.9 -189 -150.6 -172.1 -172.1C-155.2 -193.6 -117.8 -197.9 -85.7 -206.9C-53.6 -216 -26.8 -229.7 0 -243.4L0 0Z" fill="#FBAE3C"></path></g><g transform="translate(0, 0)"><path d="M243.4 0C243.7 35.3 244.1 70.5 224.8 93.1C205.6 115.7 166.7 125.6 140.7 140.7C114.7 155.8 101.7 176 80.4 194C59.1 212 29.5 227.7 0 243.4L0 0Z" fill="#FBAE3C"></path></g></svg>