<svg width="70" height="71" viewBox="0 0 70 71" fill="none" xmlns="http://www.w3.org/2000/svg">
<path fill-rule="evenodd" clip-rule="evenodd" d="M34.9999 3.93032C24.2533 3.93032 15.5415 12.6421 15.5415 23.3887V24.1178H16.9102C10.6731 27.795 6.48828 34.5821 6.48828 42.3465C6.48828 54.0251 15.9556 63.4924 27.6341 63.4924H42.2174C53.896 63.4924 63.3633 54.0251 63.3633 42.3465C63.3633 34.5821 59.1785 27.795 52.9414 24.1178H54.4582V23.3887C54.4582 12.6421 45.7464 3.93032 34.9999 3.93032ZM44.4876 21.3211C43.5401 16.9526 39.6521 13.6803 34.9999 13.6803C30.3532 13.6803 26.4689 16.9448 25.5156 21.3055C26.2123 21.2362 26.9191 21.2007 27.6341 21.2007H42.2175C42.9844 21.2007 43.7418 21.2415 44.4876 21.3211Z" fill="#1C1D1D" fill-opacity="0.1"/>
<path fill-rule="evenodd" clip-rule="evenodd" d="M35 40.3881C37.6924 40.3881 39.875 42.5707 39.875 45.2631V52.5548C39.875 55.2472 37.6924 57.4298 35 57.4298C32.3076 57.4298 30.125 55.2472 30.125 52.5548V45.2631C30.125 42.5707 32.3076 40.3881 35 40.3881Z" fill="#1C1D1D"/>
</svg>
