<svg data-v-423bf9ae="" xmlns="http://www.w3.org/2000/svg" viewBox="0 0 138.41217936725423 60" class="font"><!----><!----><!----><g data-v-423bf9ae="" id="c6a763d9-3cef-49db-af51-7a1650461498" fill="black" transform="matrix(3.3783786976630896,0,0,3.3783786976630896,-3.682433676279331,-8.310812678800438)"><path d="M8.88 9.30L8.88 9.30L8.88 9.30Q8.88 7.50 8.20 6.34L8.20 6.34L8.20 6.34Q7.53 5.18 6.19 5.18L6.19 5.18L6.19 5.18Q5.19 5.18 4.34 6.01L4.34 6.01L4.34 6.01Q3.49 6.83 3.02 8.09L3.02 8.09L3.02 8.09Q2.55 9.35 2.55 10.65L2.55 10.65L2.55 10.65Q2.55 13.43 3.99 13.43L3.99 13.43L3.99 13.43Q5.31 13.43 5.31 11.80L5.31 11.80L5.31 11.80Q5.31 11.30 5.13 10.89L5.13 10.89L5.13 10.89Q4.96 10.47 4.79 10.30L4.79 10.30L4.61 10.15L4.61 10.15Q4.96 9.98 5.44 9.98L5.44 9.98L5.44 9.98Q5.92 9.98 6.38 10.36L6.38 10.36L6.38 10.36Q6.83 10.74 6.83 11.52L6.83 11.52L6.83 11.52Q6.83 12.87 6.01 13.59L6.01 13.59L6.01 13.59Q5.19 14.32 4.05 14.32L4.05 14.32L4.05 14.32Q2.91 14.32 2.03 13.37L2.03 13.37L2.03 13.37Q1.15 12.42 1.15 10.58L1.15 10.58L1.15 10.58Q1.15 8.81 1.99 7.20L1.99 7.20L1.99 7.20Q2.42 6.36 3.06 5.70L3.06 5.70L3.06 5.70Q3.70 5.04 4.68 4.63L4.68 4.63L4.68 4.63Q5.66 4.23 6.82 4.23L6.82 4.23L6.82 4.23Q8.29 4.23 9.30 5.40L9.30 5.40L9.30 5.40Q10.32 6.58 10.32 8.78L10.32 8.78L10.32 8.78Q10.32 10.77 9.52 12.45L9.52 12.45L9.52 12.45Q9.09 13.38 8.41 14.15L8.41 14.15L8.41 14.15Q7.73 14.92 6.64 15.55L6.64 15.55L6.64 15.55Q5.54 16.18 4.16 16.51L4.16 16.51L4.16 16.51Q4.41 16.59 5.21 16.89L5.21 16.89L5.21 16.89Q6.01 17.19 6.34 17.32L6.34 17.32L6.34 17.32Q6.68 17.44 7.39 17.68L7.39 17.68L7.39 17.68Q8.11 17.91 8.57 18.02L8.57 18.02L8.57 18.02Q9.80 18.31 10.84 18.37L10.84 18.37L10.84 18.37Q10.54 19.05 10.09 19.43L10.09 19.43L10.09 19.43Q9.63 19.80 9.11 19.80L9.11 19.80L9.11 19.80Q8.58 19.80 6.48 18.75L6.48 18.75L6.48 18.75Q4.38 17.71 3.60 17.44L3.60 17.44L3.60 17.44Q2.07 16.91 1.09 16.88L1.09 16.88L1.09 16.88Q1.67 16.07 2.62 16.07L2.62 16.07L2.62 16.07Q4.03 15.92 5.15 15.40L5.15 15.40L5.15 15.40Q6.27 14.88 6.96 14.19L6.96 14.19L6.96 14.19Q7.64 13.50 8.09 12.63L8.09 12.63L8.09 12.63Q8.88 11.09 8.88 9.30ZM17.18 7.32L17.18 7.32L17.18 7.32Q18.38 7.32 18.38 8.57L18.38 8.57L18.38 8.57Q18.38 8.79 18.12 10.54L18.12 10.54L18.12 10.54Q17.85 12.28 17.85 13.52L17.85 13.52L17.85 13.52Q17.85 14.77 18.12 15.72L18.12 15.72L18.12 15.72Q17.26 15.39 16.93 14.77L16.93 14.77L16.93 14.77Q16.60 14.15 16.60 13.24L16.60 13.24L16.60 13.24Q16.60 12.89 16.76 11.66L16.76 11.66L16.76 11.66Q16.34 13.26 15.46 14.34L15.46 14.34L15.46 14.34Q14.57 15.43 13.82 15.43L13.82 15.43L13.82 15.43Q12.22 15.43 12.22 13.10L12.22 13.10L12.22 13.10Q12.22 12.33 12.45 10.96L12.45 10.96L12.45 10.96Q12.68 9.58 12.68 8.86L12.68 8.86L12.68 8.86Q12.68 8.15 12.49 7.42L12.49 7.42L12.49 7.42Q13.38 7.42 13.83 7.73L13.83 7.73L13.83 7.73Q14.28 8.04 14.28 8.92L14.28 8.92L14.28 8.92Q14.28 9.39 13.99 10.88L13.99 10.88L13.99 10.88Q13.69 12.36 13.69 13.08L13.69 13.08L13.69 13.08Q13.69 14.11 14.34 14.11L14.34 14.11L14.34 14.11Q14.87 14.11 15.45 13.28L15.45 13.28L15.45 13.28Q16.03 12.45 16.42 11.12L16.42 11.12L16.42 11.12Q16.81 9.79 16.81 8.48L16.81 8.48L16.81 8.48Q16.81 7.90 16.73 7.35L16.73 7.35L16.73 7.35Q17.04 7.32 17.18 7.32ZM22.36 15.64L22.36 15.64Q21.56 15.36 21.25 14.78L21.25 14.78L21.25 14.78Q20.93 14.20 20.93 13.37L20.93 13.37L20.93 13.37Q20.93 12.54 21.15 11.00L21.15 11.00L21.15 11.00Q21.38 9.46 21.38 8.61L21.38 8.61L21.38 8.61Q21.38 7.76 21.29 7.29L21.29 7.29L21.29 7.29Q21.55 7.27 21.70 7.27L21.70 7.27L21.70 7.27Q22.33 7.27 22.61 7.55L22.61 7.55L22.61 7.55Q22.89 7.83 22.89 8.47L22.89 8.47L22.89 8.47Q22.89 8.68 22.55 10.68L22.55 10.68L22.55 10.68Q22.20 12.67 22.20 13.96L22.20 13.96L22.20 13.96Q22.19 15.26 22.36 15.64L22.36 15.64ZM22.57 5.88L22.57 5.88L22.57 5.88Q21.39 5.88 21.39 5.08L21.39 5.08L21.39 5.08Q21.39 4.80 21.60 4.30L21.60 4.30L21.60 4.30Q21.91 4.24 22.13 4.24L22.13 4.24L22.13 4.24Q23.31 4.24 23.31 5.04L23.31 5.04L23.31 5.04Q23.31 5.32 23.10 5.82L23.10 5.82L23.10 5.82Q22.79 5.88 22.57 5.88ZM25.37 7.50L25.37 7.50L25.37 7.50Q26.71 7.70 27.87 7.70L27.87 7.70L27.87 7.70Q29.02 7.70 29.78 7.63L29.78 7.63L29.78 7.63Q29.99 7.20 30.09 6.83L30.09 6.83L30.09 6.83Q30.72 7.36 30.72 7.99L30.72 7.99L30.72 7.99Q30.72 8.62 30.15 9.48L30.15 9.48L30.15 9.48Q29.58 10.33 28.34 11.80L28.34 11.80L28.34 11.80Q27.09 13.26 26.46 14.11L26.46 14.11L26.46 14.11Q28.14 14.15 28.75 14.15L28.75 14.15L28.75 14.15Q29.36 14.15 30.23 14.03L30.23 14.03L30.23 14.03Q30.30 14.38 30.30 14.76L30.30 14.76L30.30 14.76Q30.30 15.53 29.23 15.53L29.23 15.53L29.23 15.53Q28.98 15.53 27.77 15.41L27.77 15.41L27.77 15.41Q26.56 15.30 25.68 15.30L25.68 15.30L25.68 15.30Q24.79 15.30 23.93 15.54L23.93 15.54L23.93 15.54Q24.12 14.49 24.86 14.22L24.86 14.22L24.86 14.22Q27.64 11.35 29.22 8.69L29.22 8.69L29.22 8.69Q28.49 8.72 27.43 8.86L27.43 8.86L27.43 8.86Q26.38 8.99 26.17 8.99L26.17 8.99L26.17 8.99Q25.26 8.99 25.26 8.08L25.26 8.08L25.26 8.08Q25.26 7.81 25.37 7.50ZM32.07 14.41L32.07 14.41L32.07 14.41Q32.06 14.18 32.06 13.69L32.06 13.69L32.06 13.69Q32.06 13.19 32.53 9.44L32.53 9.44L32.53 9.44Q33.00 5.68 33.00 4.28L33.00 4.28L33.00 4.28Q33.00 2.88 32.83 2.46L32.83 2.46L32.83 2.46Q33.61 2.76 33.94 3.33L33.94 3.33L33.94 3.33Q34.26 3.91 34.26 4.72L34.26 4.72L34.26 4.72Q34.26 5.53 33.85 8.92L33.85 8.92L33.85 8.92Q33.45 12.31 33.45 14.38L33.45 14.38L33.45 14.38Q33.45 14.83 33.50 15.64L33.50 15.64L33.50 15.64Q32.73 15.58 32.41 15.27L32.41 15.27L32.41 15.27Q32.14 15.02 32.07 14.41ZM42.06 8.32L42.06 8.32L42.06 8.32Q42.06 8.81 41.64 9.67L41.64 9.67L41.64 9.67Q41.22 10.54 40.61 11.58L40.61 11.58L40.61 11.58Q40.01 12.61 39.41 13.78L39.41 13.78L39.41 13.78Q38.81 14.95 38.39 16.35L38.39 16.35L38.39 16.35Q37.97 17.74 37.97 19.01L37.97 19.01L37.97 19.01Q37.97 19.64 38.07 20.22L38.07 20.22L38.07 20.22Q37.17 20.01 36.86 19.59L36.86 19.59L36.86 19.59Q36.54 19.18 36.54 18.62L36.54 18.62L36.54 18.62Q36.54 17.82 37.52 15.58L37.52 15.58L37.52 15.58Q37.31 14.71 37.00 12.86L37.00 12.86L37.00 12.86Q36.69 11.00 36.38 9.63L36.38 9.63L36.38 9.63Q36.06 8.26 35.66 7.59L35.66 7.59L35.66 7.59Q36.19 7.22 36.57 7.22L36.57 7.22L36.57 7.22Q37.30 7.22 37.56 7.97L37.56 7.97L37.56 7.97Q37.83 8.72 38.03 10.84L38.03 10.84L38.03 10.84Q38.23 12.95 38.44 13.94L38.44 13.94L38.44 13.94Q41.19 8.78 41.19 7.04L41.19 7.04L41.19 7.04Q42.06 7.63 42.06 8.32Z"></path></g><!----><!----></svg>