<svg id="visual" viewBox="0 0 900 600" width="900" height="600" xmlns="http://www.w3.org/2000/svg" xmlns:xlink="http://www.w3.org/1999/xlink" version="1.1"><g stroke-width="1" stroke-linejoin="bevel"><path d="M425 295L513 360L512 306Z" fill="#081a28" stroke="#081a28"></path><path d="M425 295L413 415L513 360Z" fill="#00101c" stroke="#00101c"></path><path d="M513 360L590 316L512 306Z" fill="#081a28" stroke="#081a28"></path><path d="M413 415L435 469L513 360Z" fill="#19435d" stroke="#19435d"></path><path d="M513 360L622 370L590 316Z" fill="#205a7a" stroke="#205a7a"></path><path d="M590 316L527 205L512 306Z" fill="#246688" stroke="#246688"></path><path d="M512 306L527 205L425 295Z" fill="#0c2435" stroke="#0c2435"></path><path d="M586 485L622 370L513 360Z" fill="#205a7a" stroke="#205a7a"></path><path d="M590 316L639 231L527 205Z" fill="#19435d" stroke="#19435d"></path><path d="M527 205L389 186L425 295Z" fill="#081a28" stroke="#081a28"></path><path d="M276 338L298 420L413 415Z" fill="#00101c" stroke="#00101c"></path><path d="M276 338L413 415L425 295Z" fill="#112e42" stroke="#112e42"></path><path d="M413 415L306 478L435 469Z" fill="#19435d" stroke="#19435d"></path><path d="M389 186L276 338L425 295Z" fill="#297ea6" stroke="#297ea6"></path><path d="M435 469L586 485L513 360Z" fill="#19435d" stroke="#19435d"></path><path d="M713 318L639 231L590 316Z" fill="#205a7a" stroke="#205a7a"></path><path d="M439 600L497 539L435 469Z" fill="#297ea6" stroke="#297ea6"></path><path d="M435 469L497 539L586 485Z" fill="#205a7a" stroke="#205a7a"></path><path d="M183 411L306 478L298 420Z" fill="#297ea6" stroke="#297ea6"></path><path d="M298 420L306 478L413 415Z" fill="#277297" stroke="#277297"></path><path d="M639 231L565 120L527 205Z" fill="#19435d" stroke="#19435d"></path><path d="M527 205L424 93L389 186Z" fill="#00101c" stroke="#00101c"></path><path d="M482 78L424 93L527 205Z" fill="#246688" stroke="#246688"></path><path d="M389 186L262 190L276 338Z" fill="#1d4e6b" stroke="#1d4e6b"></path><path d="M308 124L262 190L389 186Z" fill="#277297" stroke="#277297"></path><path d="M734 422L713 318L622 370Z" fill="#246688" stroke="#246688"></path><path d="M622 370L713 318L590 316Z" fill="#112e42" stroke="#112e42"></path><path d="M639 231L732 116L565 120Z" fill="#00101c" stroke="#00101c"></path><path d="M565 120L482 78L527 205Z" fill="#205a7a" stroke="#205a7a"></path><path d="M424 93L308 124L389 186Z" fill="#297ea6" stroke="#297ea6"></path><path d="M306 478L439 600L435 469Z" fill="#277297" stroke="#277297"></path><path d="M497 539L571 600L586 485Z" fill="#1d4e6b" stroke="#1d4e6b"></path><path d="M262 190L194 325L276 338Z" fill="#081a28" stroke="#081a28"></path><path d="M276 338L183 411L298 420Z" fill="#297ea6" stroke="#297ea6"></path><path d="M439 600L513 600L497 539Z" fill="#15384f" stroke="#15384f"></path><path d="M586 485L734 422L622 370Z" fill="#205a7a" stroke="#205a7a"></path><path d="M713 318L715 227L639 231Z" fill="#081a28" stroke="#081a28"></path><path d="M706 535L734 422L586 485Z" fill="#112e42" stroke="#112e42"></path><path d="M713 318L760 227L715 227Z" fill="#246688" stroke="#246688"></path><path d="M513 600L571 600L497 539Z" fill="#00101c" stroke="#00101c"></path><path d="M194 325L183 411L276 338Z" fill="#15384f" stroke="#15384f"></path><path d="M306 478L305 600L439 600Z" fill="#1d4e6b" stroke="#1d4e6b"></path><path d="M734 422L761 377L713 318Z" fill="#205a7a" stroke="#205a7a"></path><path d="M175 600L305 600L306 478Z" fill="#277297" stroke="#277297"></path><path d="M666 600L706 535L586 485Z" fill="#246688" stroke="#246688"></path><path d="M734 422L801 463L761 377Z" fill="#1d4e6b" stroke="#1d4e6b"></path><path d="M835 309L760 227L713 318Z" fill="#205a7a" stroke="#205a7a"></path><path d="M715 227L732 116L639 231Z" fill="#15384f" stroke="#15384f"></path><path d="M262 190L166 208L194 325Z" fill="#112e42" stroke="#112e42"></path><path d="M77 327L125 430L183 411Z" fill="#15384f" stroke="#15384f"></path><path d="M229 110L166 208L262 190Z" fill="#1d4e6b" stroke="#1d4e6b"></path><path d="M330 0L229 110L308 124Z" fill="#246688" stroke="#246688"></path><path d="M308 124L229 110L262 190Z" fill="#19435d" stroke="#19435d"></path><path d="M376 0L308 124L424 93Z" fill="#081a28" stroke="#081a28"></path><path d="M125 430L167 485L183 411Z" fill="#00101c" stroke="#00101c"></path><path d="M183 411L167 485L306 478Z" fill="#0c2435" stroke="#0c2435"></path><path d="M571 600L666 600L586 485Z" fill="#246688" stroke="#246688"></path><path d="M565 120L530 0L482 78Z" fill="#15384f" stroke="#15384f"></path><path d="M482 78L376 0L424 93Z" fill="#0c2435" stroke="#0c2435"></path><path d="M603 0L530 0L565 120Z" fill="#0c2435" stroke="#0c2435"></path><path d="M760 227L732 116L715 227Z" fill="#277297" stroke="#277297"></path><path d="M530 0L376 0L482 78Z" fill="#205a7a" stroke="#205a7a"></path><path d="M77 327L183 411L194 325Z" fill="#15384f" stroke="#15384f"></path><path d="M376 0L330 0L308 124Z" fill="#19435d" stroke="#19435d"></path><path d="M786 600L801 463L706 535Z" fill="#1d4e6b" stroke="#1d4e6b"></path><path d="M706 535L801 463L734 422Z" fill="#081a28" stroke="#081a28"></path><path d="M761 377L835 309L713 318Z" fill="#205a7a" stroke="#205a7a"></path><path d="M732 116L603 0L565 120Z" fill="#246688" stroke="#246688"></path><path d="M104 125L120 221L166 208Z" fill="#19435d" stroke="#19435d"></path><path d="M166 208L120 221L194 325Z" fill="#277297" stroke="#277297"></path><path d="M104 125L166 208L229 110Z" fill="#15384f" stroke="#15384f"></path><path d="M900 404L835 309L761 377Z" fill="#1d4e6b" stroke="#1d4e6b"></path><path d="M760 227L803 90L732 116Z" fill="#1d4e6b" stroke="#1d4e6b"></path><path d="M0 513L125 519L125 430Z" fill="#0c2435" stroke="#0c2435"></path><path d="M125 430L125 519L167 485Z" fill="#081a28" stroke="#081a28"></path><path d="M167 485L175 600L306 478Z" fill="#277297" stroke="#277297"></path><path d="M120 221L77 327L194 325Z" fill="#112e42" stroke="#112e42"></path><path d="M125 519L175 600L167 485Z" fill="#1d4e6b" stroke="#1d4e6b"></path><path d="M135 0L104 125L229 110Z" fill="#112e42" stroke="#112e42"></path><path d="M0 221L0 314L77 327Z" fill="#00101c" stroke="#00101c"></path><path d="M900 132L803 90L760 227Z" fill="#246688" stroke="#246688"></path><path d="M732 116L730 0L603 0Z" fill="#0c2435" stroke="#0c2435"></path><path d="M666 600L786 600L706 535Z" fill="#277297" stroke="#277297"></path><path d="M900 404L900 311L835 309Z" fill="#297ea6" stroke="#297ea6"></path><path d="M330 0L210 0L229 110Z" fill="#1d4e6b" stroke="#1d4e6b"></path><path d="M803 90L730 0L732 116Z" fill="#00101c" stroke="#00101c"></path><path d="M900 404L761 377L801 463Z" fill="#19435d" stroke="#19435d"></path><path d="M835 309L900 238L760 227Z" fill="#0c2435" stroke="#0c2435"></path><path d="M0 513L118 600L125 519Z" fill="#0c2435" stroke="#0c2435"></path><path d="M125 519L118 600L175 600Z" fill="#1d4e6b" stroke="#1d4e6b"></path><path d="M900 527L900 404L801 463Z" fill="#15384f" stroke="#15384f"></path><path d="M900 311L900 238L835 309Z" fill="#15384f" stroke="#15384f"></path><path d="M0 221L77 327L120 221Z" fill="#19435d" stroke="#19435d"></path><path d="M77 327L0 386L125 430Z" fill="#112e42" stroke="#112e42"></path><path d="M0 314L0 386L77 327Z" fill="#246688" stroke="#246688"></path><path d="M210 0L135 0L229 110Z" fill="#00101c" stroke="#00101c"></path><path d="M104 125L0 221L120 221Z" fill="#1d4e6b" stroke="#1d4e6b"></path><path d="M786 600L900 527L801 463Z" fill="#00101c" stroke="#00101c"></path><path d="M0 63L0 221L104 125Z" fill="#277297" stroke="#277297"></path><path d="M900 238L900 132L760 227Z" fill="#00101c" stroke="#00101c"></path><path d="M803 90L839 0L730 0Z" fill="#297ea6" stroke="#297ea6"></path><path d="M0 386L0 513L125 430Z" fill="#19435d" stroke="#19435d"></path><path d="M900 0L839 0L803 90Z" fill="#0c2435" stroke="#0c2435"></path><path d="M786 600L900 600L900 527Z" fill="#205a7a" stroke="#205a7a"></path><path d="M0 513L0 600L118 600Z" fill="#297ea6" stroke="#297ea6"></path><path d="M135 0L0 63L104 125Z" fill="#1d4e6b" stroke="#1d4e6b"></path><path d="M900 132L900 0L803 90Z" fill="#00101c" stroke="#00101c"></path><path d="M135 0L0 0L0 63Z" fill="#277297" stroke="#277297"></path></g></svg>