<svg width="22" height="25" viewBox="0 0 22 25" fill="none" xmlns="http://www.w3.org/2000/svg">
<path d="M5.16667 17.213H13.3333V19.5463H5.16667V17.213ZM5.16667 12.5463H16.8333V14.8796H5.16667V12.5463ZM5.16667 7.87964H16.8333V10.213H5.16667V7.87964ZM19.1667 3.21297H14.29C13.8 1.85964 12.5167 0.879639 11 0.879639C9.48333 0.879639 8.2 1.85964 7.71 3.21297H2.83333C2.67 3.21297 2.51833 3.22464 2.36667 3.25964C1.91167 3.35297 1.50333 3.58631 1.18833 3.90131C0.978333 4.11131 0.803333 4.36797 0.686667 4.64797C0.57 4.91631 0.5 5.21964 0.5 5.54631V21.8796C0.5 22.1946 0.57 22.5096 0.686667 22.7896C0.803333 23.0696 0.978333 23.3146 1.18833 23.5363C1.50333 23.8513 1.91167 24.0846 2.36667 24.178C2.51833 24.2013 2.67 24.213 2.83333 24.213H19.1667C20.45 24.213 21.5 23.163 21.5 21.8796V5.54631C21.5 4.26297 20.45 3.21297 19.1667 3.21297ZM11 2.92131C11.4783 2.92131 11.875 3.31797 11.875 3.79631C11.875 4.27464 11.4783 4.67131 11 4.67131C10.5217 4.67131 10.125 4.27464 10.125 3.79631C10.125 3.31797 10.5217 2.92131 11 2.92131ZM19.1667 21.8796H2.83333V5.54631H19.1667V21.8796Z" fill="white"/>
</svg>
